<mxfile host="app.diagrams.net" modified="2021-11-10T20:17:19.724Z" agent="5.0 (Windows NT 10.0; Win64; x64) AppleWebKit/537.36 (KHTML, like Gecko) Chrome/95.0.4638.69 Safari/537.36" etag="PRa2RT_RRR5NH4kdPAls" version="15.6.8" type="github">
  <diagram id="WiW1dt4rwBZ5oRVmD_iz" name="Page-1">
    <mxGraphModel dx="782" dy="711" grid="1" gridSize="10" guides="1" tooltips="1" connect="1" arrows="1" fold="1" page="1" pageScale="1" pageWidth="600" pageHeight="300" math="0" shadow="0">
      <root>
        <mxCell id="0" />
        <mxCell id="1" parent="0" />
        <mxCell id="X48cYuM6y2Ta0CUNgX4l-2" value="x" style="rounded=1;whiteSpace=wrap;html=1;" vertex="1" parent="1">
          <mxGeometry x="40" y="-80" width="40" height="40" as="geometry" />
        </mxCell>
        <mxCell id="X48cYuM6y2Ta0CUNgX4l-4" value="+5" style="ellipse;whiteSpace=wrap;html=1;aspect=fixed;" vertex="1" parent="1">
          <mxGeometry x="120" y="-120" width="40" height="40" as="geometry" />
        </mxCell>
        <mxCell id="X48cYuM6y2Ta0CUNgX4l-5" value="" style="endArrow=classic;html=1;rounded=0;" edge="1" parent="1">
          <mxGeometry width="50" height="50" relative="1" as="geometry">
            <mxPoint x="140" y="-141" as="sourcePoint" />
            <mxPoint x="139.66" y="-121" as="targetPoint" />
          </mxGeometry>
        </mxCell>
        <mxCell id="X48cYuM6y2Ta0CUNgX4l-9" value="" style="endArrow=classic;html=1;rounded=0;entryX=0;entryY=0.5;entryDx=0;entryDy=0;exitX=1;exitY=0.5;exitDx=0;exitDy=0;" edge="1" parent="1" source="X48cYuM6y2Ta0CUNgX4l-2" target="X48cYuM6y2Ta0CUNgX4l-4">
          <mxGeometry width="50" height="50" relative="1" as="geometry">
            <mxPoint x="60" y="40" as="sourcePoint" />
            <mxPoint x="110" y="-10" as="targetPoint" />
          </mxGeometry>
        </mxCell>
        <mxCell id="X48cYuM6y2Ta0CUNgX4l-10" value="+5" style="ellipse;whiteSpace=wrap;html=1;aspect=fixed;" vertex="1" parent="1">
          <mxGeometry x="120" y="-40" width="40" height="40" as="geometry" />
        </mxCell>
        <mxCell id="X48cYuM6y2Ta0CUNgX4l-11" value="" style="endArrow=classic;html=1;rounded=0;" edge="1" parent="1">
          <mxGeometry width="50" height="50" relative="1" as="geometry">
            <mxPoint x="140" y="-61" as="sourcePoint" />
            <mxPoint x="139.65999999999997" y="-41" as="targetPoint" />
          </mxGeometry>
        </mxCell>
        <mxCell id="X48cYuM6y2Ta0CUNgX4l-12" value="" style="endArrow=classic;html=1;rounded=0;entryX=0;entryY=0.5;entryDx=0;entryDy=0;exitX=1;exitY=0.5;exitDx=0;exitDy=0;" edge="1" parent="1" source="X48cYuM6y2Ta0CUNgX4l-2" target="X48cYuM6y2Ta0CUNgX4l-10">
          <mxGeometry width="50" height="50" relative="1" as="geometry">
            <mxPoint x="60" y="50" as="sourcePoint" />
            <mxPoint x="110" as="targetPoint" />
          </mxGeometry>
        </mxCell>
        <mxCell id="X48cYuM6y2Ta0CUNgX4l-20" style="edgeStyle=orthogonalEdgeStyle;rounded=0;orthogonalLoop=1;jettySize=auto;html=1;exitX=1;exitY=0.5;exitDx=0;exitDy=0;" edge="1" parent="1">
          <mxGeometry relative="1" as="geometry">
            <mxPoint x="260.3103448275863" y="38.75862068965523" as="targetPoint" />
            <mxPoint x="260" y="39" as="sourcePoint" />
          </mxGeometry>
        </mxCell>
        <mxCell id="X48cYuM6y2Ta0CUNgX4l-21" value="&lt;span style=&quot;color: rgb(32 , 33 , 36) ; font-family: &amp;#34;roboto&amp;#34; , &amp;#34;arial&amp;#34; , sans-serif ; font-size: 16px ; text-align: left ; background-color: rgb(255 , 255 , 255)&quot;&gt;≥2&lt;/span&gt;" style="ellipse;whiteSpace=wrap;html=1;aspect=fixed;" vertex="1" parent="1">
          <mxGeometry x="280" y="-160" width="40" height="40" as="geometry" />
        </mxCell>
        <mxCell id="X48cYuM6y2Ta0CUNgX4l-23" value="" style="endArrow=classic;html=1;rounded=0;exitX=1;exitY=0.5;exitDx=0;exitDy=0;" edge="1" parent="1" source="X48cYuM6y2Ta0CUNgX4l-4">
          <mxGeometry width="50" height="50" relative="1" as="geometry">
            <mxPoint x="170" y="-110" as="sourcePoint" />
            <mxPoint x="200" y="-100" as="targetPoint" />
          </mxGeometry>
        </mxCell>
        <mxCell id="X48cYuM6y2Ta0CUNgX4l-27" value="" style="endArrow=classic;html=1;rounded=0;exitX=1;exitY=0.5;exitDx=0;exitDy=0;" edge="1" parent="1" source="X48cYuM6y2Ta0CUNgX4l-10">
          <mxGeometry width="50" height="50" relative="1" as="geometry">
            <mxPoint x="170" y="-20" as="sourcePoint" />
            <mxPoint x="200" y="-20" as="targetPoint" />
          </mxGeometry>
        </mxCell>
        <mxCell id="X48cYuM6y2Ta0CUNgX4l-42" value="y" style="rounded=1;whiteSpace=wrap;html=1;" vertex="1" parent="1">
          <mxGeometry x="40" y="240" width="40" height="40" as="geometry" />
        </mxCell>
        <mxCell id="X48cYuM6y2Ta0CUNgX4l-43" value="+9" style="ellipse;whiteSpace=wrap;html=1;aspect=fixed;" vertex="1" parent="1">
          <mxGeometry x="120" y="120" width="40" height="40" as="geometry" />
        </mxCell>
        <mxCell id="X48cYuM6y2Ta0CUNgX4l-44" value="" style="endArrow=classic;html=1;rounded=0;" edge="1" parent="1">
          <mxGeometry width="50" height="50" relative="1" as="geometry">
            <mxPoint x="140" y="99" as="sourcePoint" />
            <mxPoint x="139.65999999999997" y="119" as="targetPoint" />
          </mxGeometry>
        </mxCell>
        <mxCell id="X48cYuM6y2Ta0CUNgX4l-45" value="" style="endArrow=classic;html=1;rounded=0;entryX=0;entryY=0.5;entryDx=0;entryDy=0;exitX=1;exitY=0.5;exitDx=0;exitDy=0;" edge="1" parent="1" source="X48cYuM6y2Ta0CUNgX4l-42" target="X48cYuM6y2Ta0CUNgX4l-43">
          <mxGeometry width="50" height="50" relative="1" as="geometry">
            <mxPoint x="60" y="200" as="sourcePoint" />
            <mxPoint x="110" y="150" as="targetPoint" />
          </mxGeometry>
        </mxCell>
        <mxCell id="X48cYuM6y2Ta0CUNgX4l-46" value="+1" style="ellipse;whiteSpace=wrap;html=1;aspect=fixed;" vertex="1" parent="1">
          <mxGeometry x="120" y="200" width="40" height="40" as="geometry" />
        </mxCell>
        <mxCell id="X48cYuM6y2Ta0CUNgX4l-47" value="" style="endArrow=classic;html=1;rounded=0;" edge="1" parent="1">
          <mxGeometry width="50" height="50" relative="1" as="geometry">
            <mxPoint x="140" y="179" as="sourcePoint" />
            <mxPoint x="139.65999999999997" y="199" as="targetPoint" />
          </mxGeometry>
        </mxCell>
        <mxCell id="X48cYuM6y2Ta0CUNgX4l-48" value="" style="endArrow=classic;html=1;rounded=0;entryX=0;entryY=0.5;entryDx=0;entryDy=0;exitX=1;exitY=0.5;exitDx=0;exitDy=0;" edge="1" parent="1" source="X48cYuM6y2Ta0CUNgX4l-42" target="X48cYuM6y2Ta0CUNgX4l-46">
          <mxGeometry width="50" height="50" relative="1" as="geometry">
            <mxPoint x="60" y="210" as="sourcePoint" />
            <mxPoint x="110" y="160" as="targetPoint" />
          </mxGeometry>
        </mxCell>
        <mxCell id="X48cYuM6y2Ta0CUNgX4l-56" value="&lt;span style=&quot;color: rgb(32 , 33 , 36) ; font-family: &amp;#34;roboto&amp;#34; , &amp;#34;arial&amp;#34; , sans-serif ; font-size: 16px ; text-align: left ; background-color: rgb(255 , 255 , 255)&quot;&gt;≥0&lt;/span&gt;" style="ellipse;whiteSpace=wrap;html=1;aspect=fixed;" vertex="1" parent="1">
          <mxGeometry x="200" y="-120" width="40" height="40" as="geometry" />
        </mxCell>
        <mxCell id="X48cYuM6y2Ta0CUNgX4l-58" value="" style="endArrow=classic;html=1;rounded=0;exitX=1;exitY=0.5;exitDx=0;exitDy=0;entryX=0;entryY=0.5;entryDx=0;entryDy=0;" edge="1" parent="1" source="X48cYuM6y2Ta0CUNgX4l-56" target="X48cYuM6y2Ta0CUNgX4l-21">
          <mxGeometry width="50" height="50" relative="1" as="geometry">
            <mxPoint x="250" y="-30" as="sourcePoint" />
            <mxPoint x="280" y="-20" as="targetPoint" />
          </mxGeometry>
        </mxCell>
        <mxCell id="X48cYuM6y2Ta0CUNgX4l-62" value="&lt;span style=&quot;color: rgb(32 , 33 , 36) ; font-family: &amp;#34;roboto&amp;#34; , &amp;#34;arial&amp;#34; , sans-serif ; font-size: 16px ; text-align: left ; background-color: rgb(255 , 255 , 255)&quot;&gt;≤&lt;/span&gt;0" style="ellipse;whiteSpace=wrap;html=1;aspect=fixed;" vertex="1" parent="1">
          <mxGeometry x="200" y="-40" width="40" height="40" as="geometry" />
        </mxCell>
        <mxCell id="X48cYuM6y2Ta0CUNgX4l-64" value="" style="endArrow=classic;html=1;rounded=0;exitX=1;exitY=0.5;exitDx=0;exitDy=0;entryX=0;entryY=0.5;entryDx=0;entryDy=0;" edge="1" parent="1" source="X48cYuM6y2Ta0CUNgX4l-125" target="X48cYuM6y2Ta0CUNgX4l-21">
          <mxGeometry width="50" height="50" relative="1" as="geometry">
            <mxPoint x="250" y="50" as="sourcePoint" />
            <mxPoint x="280" y="60" as="targetPoint" />
          </mxGeometry>
        </mxCell>
        <mxCell id="X48cYuM6y2Ta0CUNgX4l-65" value="activation" style="text;html=1;strokeColor=none;fillColor=none;align=center;verticalAlign=middle;whiteSpace=wrap;rounded=0;" vertex="1" parent="1">
          <mxGeometry x="190" y="-150" width="60" height="30" as="geometry" />
        </mxCell>
        <mxCell id="X48cYuM6y2Ta0CUNgX4l-66" value="+2" style="ellipse;whiteSpace=wrap;html=1;aspect=fixed;" vertex="1" parent="1">
          <mxGeometry x="120" y="40" width="40" height="40" as="geometry" />
        </mxCell>
        <mxCell id="X48cYuM6y2Ta0CUNgX4l-67" value="" style="endArrow=classic;html=1;rounded=0;" edge="1" parent="1">
          <mxGeometry width="50" height="50" relative="1" as="geometry">
            <mxPoint x="140" y="19" as="sourcePoint" />
            <mxPoint x="139.65999999999997" y="39" as="targetPoint" />
          </mxGeometry>
        </mxCell>
        <mxCell id="X48cYuM6y2Ta0CUNgX4l-68" value="" style="endArrow=classic;html=1;rounded=0;exitX=1;exitY=0.5;exitDx=0;exitDy=0;" edge="1" parent="1" source="X48cYuM6y2Ta0CUNgX4l-66">
          <mxGeometry width="50" height="50" relative="1" as="geometry">
            <mxPoint x="170" y="60" as="sourcePoint" />
            <mxPoint x="200" y="60" as="targetPoint" />
          </mxGeometry>
        </mxCell>
        <mxCell id="X48cYuM6y2Ta0CUNgX4l-69" value="&lt;span style=&quot;color: rgb(32 , 33 , 36) ; font-family: &amp;#34;roboto&amp;#34; , &amp;#34;arial&amp;#34; , sans-serif ; font-size: 16px ; font-style: normal ; font-weight: 400 ; letter-spacing: normal ; text-align: left ; text-indent: 0px ; text-transform: none ; word-spacing: 0px ; background-color: rgb(255 , 255 , 255) ; display: inline ; float: none&quot;&gt;≥0&lt;/span&gt;" style="ellipse;whiteSpace=wrap;html=1;aspect=fixed;" vertex="1" parent="1">
          <mxGeometry x="200" y="40" width="40" height="40" as="geometry" />
        </mxCell>
        <mxCell id="X48cYuM6y2Ta0CUNgX4l-74" value="" style="endArrow=classic;html=1;rounded=0;" edge="1" parent="1">
          <mxGeometry width="50" height="50" relative="1" as="geometry">
            <mxPoint x="240" y="60" as="sourcePoint" />
            <mxPoint x="280" y="20" as="targetPoint" />
          </mxGeometry>
        </mxCell>
        <mxCell id="X48cYuM6y2Ta0CUNgX4l-76" value="" style="endArrow=classic;html=1;rounded=0;entryX=0;entryY=0.5;entryDx=0;entryDy=0;exitX=1;exitY=0.5;exitDx=0;exitDy=0;" edge="1" parent="1" source="X48cYuM6y2Ta0CUNgX4l-2" target="X48cYuM6y2Ta0CUNgX4l-66">
          <mxGeometry width="50" height="50" relative="1" as="geometry">
            <mxPoint x="60" y="90" as="sourcePoint" />
            <mxPoint x="100" y="50" as="targetPoint" />
          </mxGeometry>
        </mxCell>
        <mxCell id="X48cYuM6y2Ta0CUNgX4l-81" value="&lt;span style=&quot;color: rgb(32 , 33 , 36) ; font-family: &amp;#34;roboto&amp;#34; , &amp;#34;arial&amp;#34; , sans-serif ; font-size: 16px ; text-align: left ; background-color: rgb(255 , 255 , 255)&quot;&gt;≥2&lt;/span&gt;" style="ellipse;whiteSpace=wrap;html=1;aspect=fixed;" vertex="1" parent="1">
          <mxGeometry x="280" width="40" height="40" as="geometry" />
        </mxCell>
        <mxCell id="X48cYuM6y2Ta0CUNgX4l-83" value="" style="endArrow=classic;html=1;rounded=0;exitX=1;exitY=0.5;exitDx=0;exitDy=0;entryX=0;entryY=0.5;entryDx=0;entryDy=0;" edge="1" parent="1">
          <mxGeometry width="50" height="50" relative="1" as="geometry">
            <mxPoint x="239.99999999999795" y="-21" as="sourcePoint" />
            <mxPoint x="279.99999999999795" y="19" as="targetPoint" />
          </mxGeometry>
        </mxCell>
        <mxCell id="X48cYuM6y2Ta0CUNgX4l-93" value="" style="endArrow=classic;html=1;rounded=0;exitX=1;exitY=0.5;exitDx=0;exitDy=0;" edge="1" parent="1">
          <mxGeometry width="50" height="50" relative="1" as="geometry">
            <mxPoint x="159.99999999999798" y="140" as="sourcePoint" />
            <mxPoint x="200.00000000000003" y="140" as="targetPoint" />
          </mxGeometry>
        </mxCell>
        <mxCell id="X48cYuM6y2Ta0CUNgX4l-94" value="" style="endArrow=classic;html=1;rounded=0;exitX=1;exitY=0.5;exitDx=0;exitDy=0;" edge="1" parent="1">
          <mxGeometry width="50" height="50" relative="1" as="geometry">
            <mxPoint x="159.99999999999798" y="220" as="sourcePoint" />
            <mxPoint x="200.00000000000003" y="220" as="targetPoint" />
          </mxGeometry>
        </mxCell>
        <mxCell id="X48cYuM6y2Ta0CUNgX4l-95" value="&lt;span style=&quot;color: rgb(32 , 33 , 36) ; font-family: &amp;#34;roboto&amp;#34; , &amp;#34;arial&amp;#34; , sans-serif ; font-size: 16px ; text-align: left ; background-color: rgb(255 , 255 , 255)&quot;&gt;≤&lt;/span&gt;0" style="ellipse;whiteSpace=wrap;html=1;aspect=fixed;" vertex="1" parent="1">
          <mxGeometry x="200.00000000000003" y="120" width="40" height="40" as="geometry" />
        </mxCell>
        <mxCell id="X48cYuM6y2Ta0CUNgX4l-96" value="&lt;span style=&quot;color: rgb(32 , 33 , 36) ; font-family: &amp;#34;roboto&amp;#34; , &amp;#34;arial&amp;#34; , sans-serif ; font-size: 16px ; text-align: left ; background-color: rgb(255 , 255 , 255)&quot;&gt;≥0&lt;/span&gt;" style="ellipse;whiteSpace=wrap;html=1;aspect=fixed;" vertex="1" parent="1">
          <mxGeometry x="200.00000000000003" y="200" width="40" height="40" as="geometry" />
        </mxCell>
        <mxCell id="X48cYuM6y2Ta0CUNgX4l-97" value="activation" style="text;html=1;strokeColor=none;fillColor=none;align=center;verticalAlign=middle;whiteSpace=wrap;rounded=0;" vertex="1" parent="1">
          <mxGeometry x="190.00000000000003" y="90" width="60" height="30" as="geometry" />
        </mxCell>
        <mxCell id="X48cYuM6y2Ta0CUNgX4l-98" value="&lt;span style=&quot;color: rgb(32 , 33 , 36) ; font-family: &amp;#34;roboto&amp;#34; , &amp;#34;arial&amp;#34; , sans-serif ; font-size: 16px ; text-align: left ; background-color: rgb(255 , 255 , 255)&quot;&gt;≥2&lt;/span&gt;" style="ellipse;whiteSpace=wrap;html=1;aspect=fixed;" vertex="1" parent="1">
          <mxGeometry x="280" y="160" width="40" height="40" as="geometry" />
        </mxCell>
        <mxCell id="X48cYuM6y2Ta0CUNgX4l-99" value="" style="endArrow=classic;html=1;rounded=0;exitX=1;exitY=0.5;exitDx=0;exitDy=0;entryX=0;entryY=0.5;entryDx=0;entryDy=0;" edge="1" parent="1" target="X48cYuM6y2Ta0CUNgX4l-98">
          <mxGeometry width="50" height="50" relative="1" as="geometry">
            <mxPoint x="239.99999999999795" y="140" as="sourcePoint" />
            <mxPoint x="280" y="220" as="targetPoint" />
          </mxGeometry>
        </mxCell>
        <mxCell id="X48cYuM6y2Ta0CUNgX4l-100" value="" style="endArrow=classic;html=1;rounded=0;exitX=1;exitY=0.5;exitDx=0;exitDy=0;entryX=0;entryY=0.5;entryDx=0;entryDy=0;" edge="1" parent="1" target="X48cYuM6y2Ta0CUNgX4l-98">
          <mxGeometry width="50" height="50" relative="1" as="geometry">
            <mxPoint x="239.99999999999795" y="220" as="sourcePoint" />
            <mxPoint x="280" y="300" as="targetPoint" />
          </mxGeometry>
        </mxCell>
        <mxCell id="X48cYuM6y2Ta0CUNgX4l-101" value="+9" style="ellipse;whiteSpace=wrap;html=1;aspect=fixed;" vertex="1" parent="1">
          <mxGeometry x="120" y="281" width="40" height="40" as="geometry" />
        </mxCell>
        <mxCell id="X48cYuM6y2Ta0CUNgX4l-102" value="" style="endArrow=classic;html=1;rounded=0;" edge="1" parent="1">
          <mxGeometry width="50" height="50" relative="1" as="geometry">
            <mxPoint x="140" y="259.9999999999999" as="sourcePoint" />
            <mxPoint x="139.65999999999997" y="279.9999999999999" as="targetPoint" />
          </mxGeometry>
        </mxCell>
        <mxCell id="X48cYuM6y2Ta0CUNgX4l-103" value="+1" style="ellipse;whiteSpace=wrap;html=1;aspect=fixed;" vertex="1" parent="1">
          <mxGeometry x="120" y="361" width="40" height="40" as="geometry" />
        </mxCell>
        <mxCell id="X48cYuM6y2Ta0CUNgX4l-104" value="" style="endArrow=classic;html=1;rounded=0;" edge="1" parent="1">
          <mxGeometry width="50" height="50" relative="1" as="geometry">
            <mxPoint x="140" y="339.9999999999999" as="sourcePoint" />
            <mxPoint x="139.65999999999997" y="359.9999999999999" as="targetPoint" />
          </mxGeometry>
        </mxCell>
        <mxCell id="X48cYuM6y2Ta0CUNgX4l-105" value="" style="endArrow=classic;html=1;rounded=0;exitX=1;exitY=0.5;exitDx=0;exitDy=0;" edge="1" parent="1">
          <mxGeometry width="50" height="50" relative="1" as="geometry">
            <mxPoint x="159.99999999999795" y="301" as="sourcePoint" />
            <mxPoint x="200" y="301" as="targetPoint" />
          </mxGeometry>
        </mxCell>
        <mxCell id="X48cYuM6y2Ta0CUNgX4l-106" value="" style="endArrow=classic;html=1;rounded=0;exitX=1;exitY=0.5;exitDx=0;exitDy=0;" edge="1" parent="1">
          <mxGeometry width="50" height="50" relative="1" as="geometry">
            <mxPoint x="159.99999999999795" y="381" as="sourcePoint" />
            <mxPoint x="200" y="381" as="targetPoint" />
          </mxGeometry>
        </mxCell>
        <mxCell id="X48cYuM6y2Ta0CUNgX4l-107" value="&lt;span style=&quot;color: rgb(32 , 33 , 36) ; font-family: &amp;#34;roboto&amp;#34; , &amp;#34;arial&amp;#34; , sans-serif ; font-size: 16px ; text-align: left ; background-color: rgb(255 , 255 , 255)&quot;&gt;≤&lt;/span&gt;0" style="ellipse;whiteSpace=wrap;html=1;aspect=fixed;" vertex="1" parent="1">
          <mxGeometry x="200.00000000000003" y="281" width="40" height="40" as="geometry" />
        </mxCell>
        <mxCell id="X48cYuM6y2Ta0CUNgX4l-108" value="&lt;span style=&quot;color: rgb(32 , 33 , 36) ; font-family: &amp;#34;roboto&amp;#34; , &amp;#34;arial&amp;#34; , sans-serif ; font-size: 16px ; text-align: left ; background-color: rgb(255 , 255 , 255)&quot;&gt;≥0&lt;/span&gt;" style="ellipse;whiteSpace=wrap;html=1;aspect=fixed;" vertex="1" parent="1">
          <mxGeometry x="200.00000000000003" y="361" width="40" height="40" as="geometry" />
        </mxCell>
        <mxCell id="X48cYuM6y2Ta0CUNgX4l-109" value="&lt;span style=&quot;color: rgb(32 , 33 , 36) ; font-family: &amp;#34;roboto&amp;#34; , &amp;#34;arial&amp;#34; , sans-serif ; font-size: 16px ; text-align: left ; background-color: rgb(255 , 255 , 255)&quot;&gt;≥2&lt;/span&gt;" style="ellipse;whiteSpace=wrap;html=1;aspect=fixed;" vertex="1" parent="1">
          <mxGeometry x="280" y="321" width="40" height="40" as="geometry" />
        </mxCell>
        <mxCell id="X48cYuM6y2Ta0CUNgX4l-110" value="" style="endArrow=classic;html=1;rounded=0;exitX=1;exitY=0.5;exitDx=0;exitDy=0;entryX=0;entryY=0.5;entryDx=0;entryDy=0;" edge="1" parent="1" target="X48cYuM6y2Ta0CUNgX4l-109">
          <mxGeometry width="50" height="50" relative="1" as="geometry">
            <mxPoint x="239.99999999999795" y="301" as="sourcePoint" />
            <mxPoint x="280" y="381" as="targetPoint" />
          </mxGeometry>
        </mxCell>
        <mxCell id="X48cYuM6y2Ta0CUNgX4l-111" value="" style="endArrow=classic;html=1;rounded=0;exitX=1;exitY=0.5;exitDx=0;exitDy=0;entryX=0;entryY=0.5;entryDx=0;entryDy=0;" edge="1" parent="1" target="X48cYuM6y2Ta0CUNgX4l-109">
          <mxGeometry width="50" height="50" relative="1" as="geometry">
            <mxPoint x="239.99999999999795" y="381" as="sourcePoint" />
            <mxPoint x="280" y="461" as="targetPoint" />
          </mxGeometry>
        </mxCell>
        <mxCell id="X48cYuM6y2Ta0CUNgX4l-112" value="" style="endArrow=classic;html=1;rounded=0;entryX=0;entryY=0.5;entryDx=0;entryDy=0;" edge="1" parent="1">
          <mxGeometry width="50" height="50" relative="1" as="geometry">
            <mxPoint x="80" y="260" as="sourcePoint" />
            <mxPoint x="120.00000000000193" y="380" as="targetPoint" />
          </mxGeometry>
        </mxCell>
        <mxCell id="X48cYuM6y2Ta0CUNgX4l-113" value="" style="endArrow=classic;html=1;rounded=0;entryX=0;entryY=0.5;entryDx=0;entryDy=0;exitX=1;exitY=0.5;exitDx=0;exitDy=0;" edge="1" parent="1" source="X48cYuM6y2Ta0CUNgX4l-42">
          <mxGeometry width="50" height="50" relative="1" as="geometry">
            <mxPoint x="80" y="420" as="sourcePoint" />
            <mxPoint x="120.00000000000193" y="300" as="targetPoint" />
          </mxGeometry>
        </mxCell>
        <mxCell id="X48cYuM6y2Ta0CUNgX4l-114" value="&lt;span style=&quot;color: rgb(32 , 33 , 36) ; font-family: &amp;#34;roboto&amp;#34; , &amp;#34;arial&amp;#34; , sans-serif ; font-size: 16px ; text-align: left ; background-color: rgb(255 , 255 , 255)&quot;&gt;≥2&lt;/span&gt;" style="ellipse;whiteSpace=wrap;html=1;aspect=fixed;" vertex="1" parent="1">
          <mxGeometry x="360" width="40" height="40" as="geometry" />
        </mxCell>
        <mxCell id="X48cYuM6y2Ta0CUNgX4l-115" value="" style="endArrow=classic;html=1;rounded=0;fontSize=16;entryX=0;entryY=0.5;entryDx=0;entryDy=0;exitX=1;exitY=0.5;exitDx=0;exitDy=0;" edge="1" parent="1" source="X48cYuM6y2Ta0CUNgX4l-21" target="X48cYuM6y2Ta0CUNgX4l-114">
          <mxGeometry width="50" height="50" relative="1" as="geometry">
            <mxPoint x="320" y="-60" as="sourcePoint" />
            <mxPoint x="370" y="-110" as="targetPoint" />
          </mxGeometry>
        </mxCell>
        <mxCell id="X48cYuM6y2Ta0CUNgX4l-117" value="" style="endArrow=classic;html=1;rounded=0;fontSize=16;" edge="1" parent="1">
          <mxGeometry width="50" height="50" relative="1" as="geometry">
            <mxPoint x="320" y="179.66" as="sourcePoint" />
            <mxPoint x="360" y="20" as="targetPoint" />
          </mxGeometry>
        </mxCell>
        <mxCell id="X48cYuM6y2Ta0CUNgX4l-118" value="&lt;span style=&quot;color: rgb(32 , 33 , 36) ; font-family: &amp;#34;roboto&amp;#34; , &amp;#34;arial&amp;#34; , sans-serif ; font-size: 16px ; text-align: left ; background-color: rgb(255 , 255 , 255)&quot;&gt;≥2&lt;/span&gt;" style="ellipse;whiteSpace=wrap;html=1;aspect=fixed;" vertex="1" parent="1">
          <mxGeometry x="360" y="170" width="40" height="40" as="geometry" />
        </mxCell>
        <mxCell id="X48cYuM6y2Ta0CUNgX4l-120" value="" style="endArrow=classic;html=1;rounded=0;fontSize=16;entryX=0;entryY=0.5;entryDx=0;entryDy=0;" edge="1" parent="1" target="X48cYuM6y2Ta0CUNgX4l-118">
          <mxGeometry width="50" height="50" relative="1" as="geometry">
            <mxPoint x="320" y="20" as="sourcePoint" />
            <mxPoint x="359.999999999996" y="100" as="targetPoint" />
          </mxGeometry>
        </mxCell>
        <mxCell id="X48cYuM6y2Ta0CUNgX4l-121" value="" style="endArrow=classic;html=1;rounded=0;fontSize=16;entryX=0;entryY=0.5;entryDx=0;entryDy=0;" edge="1" parent="1" target="X48cYuM6y2Ta0CUNgX4l-118">
          <mxGeometry width="50" height="50" relative="1" as="geometry">
            <mxPoint x="320" y="339.8299999999999" as="sourcePoint" />
            <mxPoint x="360" y="180.17" as="targetPoint" />
          </mxGeometry>
        </mxCell>
        <mxCell id="X48cYuM6y2Ta0CUNgX4l-122" value="-5" style="ellipse;whiteSpace=wrap;html=1;aspect=fixed;" vertex="1" parent="1">
          <mxGeometry x="120" y="-200" width="40" height="40" as="geometry" />
        </mxCell>
        <mxCell id="X48cYuM6y2Ta0CUNgX4l-123" value="" style="endArrow=classic;html=1;rounded=0;" edge="1" parent="1">
          <mxGeometry width="50" height="50" relative="1" as="geometry">
            <mxPoint x="140" y="-221" as="sourcePoint" />
            <mxPoint x="139.65999999999997" y="-201" as="targetPoint" />
          </mxGeometry>
        </mxCell>
        <mxCell id="X48cYuM6y2Ta0CUNgX4l-124" value="" style="endArrow=classic;html=1;rounded=0;exitX=1;exitY=0.5;exitDx=0;exitDy=0;" edge="1" parent="1" source="X48cYuM6y2Ta0CUNgX4l-122">
          <mxGeometry width="50" height="50" relative="1" as="geometry">
            <mxPoint x="170" y="-190" as="sourcePoint" />
            <mxPoint x="200" y="-180" as="targetPoint" />
          </mxGeometry>
        </mxCell>
        <mxCell id="X48cYuM6y2Ta0CUNgX4l-125" value="&lt;span style=&quot;color: rgb(32 , 33 , 36) ; font-family: &amp;#34;roboto&amp;#34; , &amp;#34;arial&amp;#34; , sans-serif ; font-size: 16px ; text-align: left ; background-color: rgb(255 , 255 , 255)&quot;&gt;≤&lt;/span&gt;0" style="ellipse;whiteSpace=wrap;html=1;aspect=fixed;" vertex="1" parent="1">
          <mxGeometry x="200" y="-200" width="40" height="40" as="geometry" />
        </mxCell>
        <mxCell id="X48cYuM6y2Ta0CUNgX4l-126" value="activation" style="text;html=1;strokeColor=none;fillColor=none;align=center;verticalAlign=middle;whiteSpace=wrap;rounded=0;" vertex="1" parent="1">
          <mxGeometry x="190" y="-230" width="60" height="30" as="geometry" />
        </mxCell>
        <mxCell id="X48cYuM6y2Ta0CUNgX4l-127" value="" style="endArrow=classic;html=1;rounded=0;entryX=0;entryY=0.5;entryDx=0;entryDy=0;exitX=1;exitY=0.5;exitDx=0;exitDy=0;" edge="1" parent="1">
          <mxGeometry width="50" height="50" relative="1" as="geometry">
            <mxPoint x="80" y="-60" as="sourcePoint" />
            <mxPoint x="120" y="-180" as="targetPoint" />
          </mxGeometry>
        </mxCell>
        <mxCell id="X48cYuM6y2Ta0CUNgX4l-128" value="activation" style="text;html=1;strokeColor=none;fillColor=none;align=center;verticalAlign=middle;whiteSpace=wrap;rounded=0;" vertex="1" parent="1">
          <mxGeometry x="270" y="-195" width="60" height="30" as="geometry" />
        </mxCell>
        <mxCell id="X48cYuM6y2Ta0CUNgX4l-129" value="y" style="rounded=1;whiteSpace=wrap;html=1;" vertex="1" parent="1">
          <mxGeometry x="520" y="80" width="40" height="40" as="geometry" />
        </mxCell>
        <mxCell id="X48cYuM6y2Ta0CUNgX4l-130" value="" style="endArrow=classic;html=1;rounded=0;fontSize=16;exitX=1;exitY=0.5;exitDx=0;exitDy=0;entryX=0;entryY=0.5;entryDx=0;entryDy=0;" edge="1" parent="1" target="X48cYuM6y2Ta0CUNgX4l-131">
          <mxGeometry width="50" height="50" relative="1" as="geometry">
            <mxPoint x="400" y="20" as="sourcePoint" />
            <mxPoint x="420" y="90" as="targetPoint" />
          </mxGeometry>
        </mxCell>
        <mxCell id="X48cYuM6y2Ta0CUNgX4l-131" value="&lt;span style=&quot;color: rgb(32 , 33 , 36) ; font-family: &amp;#34;roboto&amp;#34; , &amp;#34;arial&amp;#34; , sans-serif ; font-size: 16px ; text-align: left ; background-color: rgb(255 , 255 , 255)&quot;&gt;≥2&lt;/span&gt;" style="ellipse;whiteSpace=wrap;html=1;aspect=fixed;" vertex="1" parent="1">
          <mxGeometry x="440" y="80" width="40" height="40" as="geometry" />
        </mxCell>
        <mxCell id="X48cYuM6y2Ta0CUNgX4l-132" value="" style="endArrow=classic;html=1;rounded=0;fontSize=16;entryX=0;entryY=0.5;entryDx=0;entryDy=0;" edge="1" parent="1" target="X48cYuM6y2Ta0CUNgX4l-131">
          <mxGeometry width="50" height="50" relative="1" as="geometry">
            <mxPoint x="400" y="189.65999999999997" as="sourcePoint" />
            <mxPoint x="440" y="30" as="targetPoint" />
          </mxGeometry>
        </mxCell>
        <mxCell id="X48cYuM6y2Ta0CUNgX4l-133" value="" style="endArrow=classic;html=1;rounded=0;fontSize=16;entryX=0;entryY=0.5;entryDx=0;entryDy=0;" edge="1" parent="1" target="X48cYuM6y2Ta0CUNgX4l-129">
          <mxGeometry width="50" height="50" relative="1" as="geometry">
            <mxPoint x="480" y="100" as="sourcePoint" />
            <mxPoint x="530" y="50" as="targetPoint" />
          </mxGeometry>
        </mxCell>
      </root>
    </mxGraphModel>
  </diagram>
</mxfile>
